HIERARCHY
ROOT hip
{
  OFFSET 0 0 0
  CHANNELS 6 Xposition Yposition Zposition Zrotation Yrotation Xrotation
  JOINT abdomen
  {
    OFFSET 0 20.6881 -0.73152
    CHANNELS 3 Zrotation Xrotation Yrotation
    JOINT chest
    {
      OFFSET 0 11.7043 -0.48768
      CHANNELS 3 Zrotation Xrotation Yrotation
      JOINT neck
      {
        OFFSET 0 22.1894 -2.19456
        CHANNELS 3 Zrotation Xrotation Yrotation
        JOINT head
        {
          OFFSET -0.24384 7.07133 1.2192
          CHANNELS 3 Zrotation Xrotation Yrotation
          JOINT leftEye
          {
            OFFSET 4.14528 8.04674 8.04672
            CHANNELS 3 Zrotation Xrotation Yrotation
            End Site
            {
              OFFSET 1 0 0
            }
          }
          JOINT rightEye
          {
            OFFSET -3.6576 8.04674 8.04672
            CHANNELS 3 Zrotation Xrotation Yrotation
            End Site
            {
              OFFSET 1 0 0
            }
          }
        }
      }
      JOINT rCollar
      {
        OFFSET -2.68224 19.2634 -4.8768
        CHANNELS 3 Zrotation Xrotation Yrotation
        JOINT rShldr
        {
          OFFSET -8.77824 -1.95073 1.46304
          CHANNELS 3 Zrotation Xrotation Yrotation
          JOINT rForeArm
          {
            OFFSET -28.1742 -1.7115 0.48768
            CHANNELS 3 Zrotation Xrotation Yrotation
            JOINT rHand
            {
              OFFSET -22.5879 0.773209 7.07136
              CHANNELS 3 Zrotation Xrotation Yrotation
              JOINT rThumb1
              {
                OFFSET -1.2192 -0.487915 3.41376
                CHANNELS 3 Zrotation Xrotation Yrotation
                JOINT rThumb2
                {
                  OFFSET -3.37035 -0.52449 3.41376
                  CHANNELS 3 Zrotation Xrotation Yrotation
                  End Site
                  {
                    OFFSET -1.78271 -1.18214 1.43049
                  }
                }
              }
              JOINT rIndex1
              {
                OFFSET -7.75947 0.938293 5.60832
                CHANNELS 3 Zrotation Xrotation Yrotation
                JOINT rIndex2
                {
                  OFFSET -2.54057 -0.884171 1.56538
                  CHANNELS 3 Zrotation Xrotation Yrotation
                  End Site
                  {
                    OFFSET -1.62519 -0.234802 1.16502
                  }
                }
              }
              JOINT rMid1
              {
                OFFSET -8.24714 1.18213 3.41376
                CHANNELS 3 Zrotation Xrotation Yrotation
                JOINT rMid2
                {
                  OFFSET -3.10165 -0.590103 1.0647
                  CHANNELS 3 Zrotation Xrotation Yrotation
                  End Site
                  {
                    OFFSET -2.48547 -0.328903 0.83742
                  }
                }
              }
              JOINT rRing1
              {
                OFFSET -8.82822 0.546677 1.51678
                CHANNELS 3 Zrotation Xrotation Yrotation
                JOINT rRing2
                {
                  OFFSET -2.60934 -0.819778 -0.0198488
                  CHANNELS 3 Zrotation Xrotation Yrotation
                  End Site
                  {
                    OFFSET -2.33842 -0.294052 0.168128
                  }
                }
              }
              JOINT rPinky1
              {
                OFFSET -8.27202 -0.0477905 -0.4584
                CHANNELS 3 Zrotation Xrotation Yrotation
                JOINT rPinky2
                {
                  OFFSET -1.82734 -0.647385 -0.700984
                  CHANNELS 3 Zrotation Xrotation Yrotation
                  End Site
                  {
                    OFFSET -1.69225 -0.51767 -0.607171
                  }
                }
              }
            }
          }
        }
      }
      JOINT lCollar
      {
        OFFSET 2.68224 19.2634 -4.8768
        CHANNELS 3 Zrotation Xrotation Yrotation
        JOINT lShldr
        {
          OFFSET 8.77824 -1.95073 1.46304
          CHANNELS 3 Zrotation Xrotation Yrotation
          JOINT lForeArm
          {
            OFFSET 28.1742 -1.7115 0.48768
            CHANNELS 3 Zrotation Xrotation Yrotation
            JOINT lHand
            {
              OFFSET 22.5879 0.773209 7.07136
              CHANNELS 3 Zrotation Xrotation Yrotation
              JOINT lThumb1
              {
                OFFSET 1.2192 -0.487915 3.41376
                CHANNELS 3 Zrotation Xrotation Yrotation
                JOINT lThumb2
                {
                  OFFSET 3.37035 -0.52449 3.41376
                  CHANNELS 3 Zrotation Xrotation Yrotation
                  End Site
                  {
                    OFFSET 1.78271 -1.18214 1.43049
                  }
                }
              }
              JOINT lIndex1
              {
                OFFSET 7.75947 0.938293 5.60832
                CHANNELS 3 Zrotation Xrotation Yrotation
                JOINT lIndex2
                {
                  OFFSET 2.54057 -0.884171 1.56538
                  CHANNELS 3 Zrotation Xrotation Yrotation
                  End Site
                  {
                    OFFSET 1.62519 -0.234802 1.16502
                  }
                }
              }
              JOINT lMid1
              {
                OFFSET 8.24714 1.18213 3.41376
                CHANNELS 3 Zrotation Xrotation Yrotation
                JOINT lMid2
                {
                  OFFSET 3.10165 -0.590103 1.0647
                  CHANNELS 3 Zrotation Xrotation Yrotation
                  End Site
                  {
                    OFFSET 2.48547 -0.328903 0.83742
                  }
                }
              }
              JOINT lRing1
              {
                OFFSET 8.82822 0.546677 1.51678
                CHANNELS 3 Zrotation Xrotation Yrotation
                JOINT lRing2
                {
                  OFFSET 2.60934 -0.819778 -0.0198488
                  CHANNELS 3 Zrotation Xrotation Yrotation
                  End Site
                  {
                    OFFSET 2.33842 -0.294052 0.168128
                  }
                }
              }
              JOINT lPinky1
              {
                OFFSET 8.27202 -0.0477905 -0.4584
                CHANNELS 3 Zrotation Xrotation Yrotation
                JOINT lPinky2
                {
                  OFFSET 1.82734 -0.647385 -0.700984
                  CHANNELS 3 Zrotation Xrotation Yrotation
                  End Site
                  {
                    OFFSET 1.69225 -0.51767 -0.607171
                  }
                }
              }
            }
          }
        }
      }
    }
  }
  JOINT rButtock
  {
    OFFSET -8.77824 4.35084 1.2192
    CHANNELS 3 Zrotation Xrotation Yrotation
    JOINT rThigh
    {
      OFFSET 0 -1.70687 -2.19456
      CHANNELS 3 Zrotation Xrotation Yrotation
      JOINT rShin
      {
        OFFSET 0 -36.8199 0.73152
        CHANNELS 3 Zrotation Xrotation Yrotation
        JOINT rFoot
        {
          OFFSET 0.73152 -45.1104 -5.12064
          CHANNELS 3 Zrotation Xrotation Yrotation
          End Site
          {
            OFFSET -1.1221 -3.69964 12.103
          }
        }
      }
    }
  }
  JOINT lButtock
  {
    OFFSET 8.77824 4.35084 1.2192
    CHANNELS 3 Zrotation Xrotation Yrotation
    JOINT lThigh
    {
      OFFSET 0 -1.70687 -2.19456
      CHANNELS 3 Zrotation Xrotation Yrotation
      JOINT lShin
      {
        OFFSET 0 -36.8199 0.73152
        CHANNELS 3 Zrotation Xrotation Yrotation
        JOINT lFoot
        {
          OFFSET -0.73152 -45.1104 -5.12064
          CHANNELS 3 Zrotation Xrotation Yrotation
          End Site
          {
            OFFSET 1.1221 -3.69964 12.103
          }
        }
      }
    }
  }
}
MOTION
Frames:	7
Frame Time:	0.00833333
45.9492 65.5556 112.487 184.569 3.7236 -142.96 1.42435 -0.457307 -5.39215 2.44558 9.67432 -1.80009 -2.69253 6.98238 3.43534 4.27765 -10.802 8.20513 -0.0 0.0 0.0 -0.0 0.0 0.0 7.1454e-14 3.01869e-14 -1.84089e-14 77.2271 4.24131 -7.38094 -24.1329 -19.3471 50.0347 -0.267994 -14.5707 -2.09365 9.42511e-10 -5.25631e-10 -1.86409e-09 1.64843e-09 -9.05472e-10 -3.20615e-09 9.42509e-10 -5.25624e-10 -1.86411e-09 7.73091 5.47488 0.417314 9.42509e-10 -5.25626e-10 -1.86409e-09 2.90554 0.965183 0.102902 9.42511e-10 -5.25628e-10 -1.86409e-09 10.2786 0.731801 0.0259123 9.425e-10 -5.2563e-10 -1.86408e-09 2.22167 -0.733487 -0.20892 7.13887e-14 3.01938e-14 -1.86508e-14 -39.6864 23.4737 -27.1526 21.6592 -15.2535 -42.8789 0.00932473 -2.72685 0.383537 -1.90049e-09 1.41677e-09 1.16397e-09 -3.28823e-09 2.44962e-09 2.01254e-09 -1.9005e-09 1.41677e-09 1.16397e-09 -7.73091 5.47488 -0.417314 -1.9005e-09 1.41677e-09 1.16396e-09 -2.90554 0.965183 -0.102902 -1.9005e-09 1.41677e-09 1.16397e-09 -10.2786 0.731801 -0.0259123 -1.90049e-09 1.41678e-09 1.16396e-09 -2.22167 -0.733487 0.20892 -2.03217e-16 0.0 -3.88251e-19 -43.7669 -31.2719 9.82098 0.0204101 24.0453 1.77246 2.43812 -15.6711 -14.0475 2.03217e-16 0.0 3.88251e-19 30.388 -51.0866 4.65089 -0.020951 23.4299 -1.71332 -5.90626 -3.70329 15.7365
45.6162 65.6848 112.33 184.572 3.6241 -143.1 1.43625 -0.412788 -5.42342 2.49159 9.77486 -1.81369 -2.72047 7.00153 3.35132 4.3987 -10.8658 8.05458 -0.0 0.0 0.0 -0.0 0.0 0.0 1.89255e-13 4.45278e-14 -4.43787e-14 77.4568 3.88496 -7.53468 -24.0654 -19.2198 49.817 -0.262478 -14.4323 -2.0728 -1.09019e-09 -4.07405e-10 2.8119e-10 -1.88758e-09 -7.0317e-10 4.75673e-10 -1.0902e-09 -4.07397e-10 2.81171e-10 7.73091 5.47488 0.417314 -1.0902e-09 -4.07399e-10 2.8119e-10 2.90554 0.965183 0.102902 -1.09019e-09 -4.07402e-10 2.81186e-10 10.2786 0.731801 0.0259123 -1.0902e-09 -4.07404e-10 2.81199e-10 2.22167 -0.733487 -0.20892 1.89244e-13 4.45278e-14 -4.46272e-14 -39.7409 24.1229 -27.2436 21.6076 -15.1789 -42.7417 0.00999358 -2.85304 0.401303 5.18748e-10 8.32071e-10 9.32316e-11 9.00285e-10 1.44429e-09 1.62326e-10 5.18743e-10 8.32067e-10 9.32316e-11 -7.73091 5.47488 -0.417314 5.18743e-10 8.32056e-10 9.32252e-11 -2.90554 0.965183 -0.102902 5.18745e-10 8.32068e-10 9.32348e-11 -10.2786 0.731801 -0.0259123 5.18755e-10 8.32072e-10 9.32284e-11 -2.22167 -0.733487 0.20892 -2.03217e-16 0.0 -3.88251e-19 -44.0246 -30.5205 9.58665 0.023649 23.1001 1.75629 2.6642 -14.8128 -13.8344 2.03217e-16 0.0 3.88251e-19 30.0307 -50.9918 4.62542 -0.0202116 23.319 -1.70188 -5.92941 -3.60569 15.524
45.3439 65.6825 112.368 185.012 4.0566 -142.36 1.44392 -0.488307 -5.35943 2.51436 9.89767 -1.80143 -2.71523 7.07271 3.26781 4.47074 -10.9723 7.89441 -0.0 0.0 0.0 -0.0 0.0 0.0 2.17741e-13 2.49773e-14 -6.38277e-14 77.6821 3.52401 -7.69938 -23.9829 -19.0656 49.5536 -0.253847 -14.1998 -2.03795 -2.71238e-09 -2.25633e-10 2.155e-09 -4.71055e-09 -3.93191e-10 3.69339e-09 -2.71238e-09 -2.25627e-10 2.15498e-09 7.73091 5.47488 0.417314 -2.71238e-09 -2.25628e-10 2.155e-09 2.90554 0.965183 0.102902 -2.71238e-09 -2.25631e-10 2.15499e-09 10.2786 0.731801 0.0259123 -2.71239e-09 -2.25632e-10 2.155e-09 2.22167 -0.733487 -0.20892 2.17757e-13 2.49672e-14 -6.40685e-14 -39.7673 24.7848 -27.3771 21.5388 -15.0801 -42.5593 0.0115136 -3.09854 0.435884 2.64692e-09 -3.15526e-10 -1.03625e-09 4.58555e-09 -5.33742e-10 -1.7884e-09 2.64691e-09 -3.1553e-10 -1.03625e-09 -7.73091 5.47488 -0.417314 2.64691e-09 -3.15542e-10 -1.03626e-09 -2.90554 0.965183 -0.102902 2.64691e-09 -3.15529e-10 -1.03625e-09 -10.2786 0.731801 -0.0259123 2.64692e-09 -3.15528e-10 -1.03626e-09 -2.22167 -0.733487 0.20892 -2.03217e-16 0.0 -3.88251e-19 -44.3516 -29.9508 9.26554 0.0266503 22.2695 1.74902 2.88341 -13.9882 -13.6729 2.03217e-16 0.0 3.88251e-19 29.8116 -50.9431 4.72309 -0.0187038 23.1752 -1.68435 -5.92677 -3.62205 15.3386
45.0485 65.7222 112.307 185.37 4.2189 -142.017 1.44898 -0.657726 -5.23833 2.52183 10.0396 -1.77416 -2.69341 7.22009 3.19011 4.53142 -11.1647 7.74079 -0.0 0.0 0.0 -0.0 0.0 0.0 1.97185e-13 -1.60901e-14 -8.07501e-14 77.9002 3.16764 -7.88391 -23.8862 -18.8862 49.2504 -0.242185 -13.8695 -1.98867 -4.23307e-09 3.53592e-12 4.02293e-09 -7.35763e-09 -2.90029e-12 6.90208e-09 -4.23307e-09 3.538e-12 4.02292e-09 7.73091 5.47488 0.417314 -4.23307e-09 3.53752e-12 4.02293e-09 2.90554 0.965183 0.102902 -4.23307e-09 3.5361e-12 4.02293e-09 10.2786 0.731801 0.0259123 -4.23308e-09 3.53775e-12 4.02294e-09 2.22167 -0.733487 -0.20892 1.97214e-13 -1.61132e-14 -8.09737e-14 -39.7847 25.463 -27.5243 21.4545 -14.9595 -42.338 0.0142089 -3.45062 0.48552 4.77034e-09 -1.9094e-09 -2.29302e-09 8.26304e-09 -3.28274e-09 -3.95847e-09 4.77034e-09 -1.90941e-09 -2.29302e-09 -7.73091 5.47488 -0.417314 4.77034e-09 -1.90942e-09 -2.29302e-09 -2.90554 0.965183 -0.102902 4.77034e-09 -1.90941e-09 -2.29302e-09 -10.2786 0.731801 -0.0259123 4.77035e-09 -1.90941e-09 -2.29302e-09 -2.22167 -0.733487 0.20892 -2.03217e-16 0.0 -3.88251e-19 -44.7366 -29.496 8.86502 0.0298776 21.5195 1.74797 3.10102 -13.1856 -13.5419 2.03217e-16 0.0 3.88251e-19 29.6702 -50.9199 4.90019 -0.0166036 23.0069 -1.66258 -5.90962 -3.71146 15.1596
44.6982 65.8919 112.052 185.249 3.921 -142.588 1.43876 -0.840471 -5.09534 2.5177 10.1621 -1.73979 -2.65021 7.35602 3.12005 4.55699 -11.3388 7.59576 -0.0 0.0 0.0 -0.0 0.0 0.0 1.52784e-13 -5.94449e-14 -9.49919e-14 78.1092 2.84418 -8.07403 -23.7791 -18.69 48.9188 -0.22762 -13.451 -1.92638 -5.26033e-09 2.26059e-10 5.42776e-09 -9.14706e-09 3.76506e-10 9.31616e-09 -5.26033e-09 2.26057e-10 5.42775e-09 7.73091 5.47488 0.417314 -5.26033e-09 2.26057e-10 5.42776e-09 2.90554 0.965183 0.102902 -5.26033e-09 2.26057e-10 5.42775e-09 10.2786 0.731801 0.0259123 -5.26034e-09 2.26061e-10 5.42776e-09 2.22167 -0.733487 -0.20892 1.52807e-13 -5.94786e-14 -9.51984e-14 -39.8323 26.1304 -27.6325 21.3648 -14.8319 -42.105 0.0176033 -3.81401 0.536808 6.38831e-09 -3.30116e-09 -3.29248e-09 1.10651e-08 -5.68364e-09 -5.68392e-09 6.38831e-09 -3.30117e-09 -3.29248e-09 -7.73091 5.47488 -0.417314 6.38831e-09 -3.30117e-09 -3.29248e-09 -2.90554 0.965183 -0.102902 6.38831e-09 -3.30117e-09 -3.29248e-09 -10.2786 0.731801 -0.0259123 6.38831e-09 -3.30117e-09 -3.29249e-09 -2.22167 -0.733487 0.20892 -2.03217e-16 0.0 -3.88251e-19 -45.1188 -29.1679 8.45692 0.0336151 20.9408 1.75619 3.301 -12.4156 -13.4799 2.03217e-16 0.0 3.88251e-19 29.5374 -50.9016 5.07729 -0.0143032 22.8308 -1.63856 -5.88208 -3.84239 15.001
44.3454 66.042 111.897 185.185 3.8649 -142.763 1.39956 -0.955875 -4.96562 2.50581 10.2263 -1.70623 -2.58134 7.39287 3.05946 4.5248 -11.3902 7.46143 -0.0 0.0 0.0 -0.0 0.0 0.0 1.09736e-13 -8.58569e-14 -1.06399e-13 78.308 2.58185 -8.2554 -23.6661 -18.4861 48.5698 -0.210325 -12.9536 -1.8525 -5.40224e-09 3.87893e-10 5.91224e-09 -9.39707e-09 6.53833e-10 1.015e-08 -5.40224e-09 3.87889e-10 5.91223e-09 7.73091 5.47488 0.417314 -5.40224e-09 3.8789e-10 5.91224e-09 2.90554 0.965183 0.102902 -5.40224e-09 3.8789e-10 5.91224e-09 10.2786 0.731801 0.0259123 -5.40225e-09 3.87896e-10 5.91224e-09 2.22167 -0.733487 -0.20892 1.0973e-13 -8.58938e-14 -1.06598e-13 -39.9521 26.7607 -27.647 21.2805 -14.7129 -41.8873 0.0205956 -4.0935 0.576295 7.0001e-09 -3.84242e-09 -3.65005e-09 1.21239e-08 -6.61737e-09 -6.3008e-09 7.00009e-09 -3.84242e-09 -3.65005e-09 -7.73091 5.47488 -0.417314 7.0001e-09 -3.84242e-09 -3.65005e-09 -2.90554 0.965183 -0.102902 7.0001e-09 -3.84242e-09 -3.65005e-09 -10.2786 0.731801 -0.0259123 7.0001e-09 -3.84242e-09 -3.65006e-09 -2.22167 -0.733487 0.20892 -2.03217e-16 0.0 -3.88251e-19 -45.4401 -28.9791 8.11187 0.0380869 20.6243 1.77666 3.46931 -11.6891 -13.5249 2.03217e-16 0.0 3.88251e-19 29.3437 -50.8682 5.17486 -0.0122465 22.6637 -1.61425 -5.84772 -3.98319 14.8768
44.0118 66.1483 111.815 185.207 4.0377 -142.692 1.32917 -0.970336 -4.84363 2.48062 10.1964 -1.67055 -2.4649 7.25306 3.00995 4.40492 -11.2273 7.33595 -0.0 0.0 0.0 -0.0 0.0 0.0 7.24727e-14 -8.87684e-14 -1.19642e-13 78.5013 2.38964 -8.42972 -23.5454 -18.2717 48.2001 -0.189744 -12.3402 -1.76174 -4.23964e-09 4.26816e-10 4.98475e-09 -7.37803e-09 7.22694e-10 8.55916e-09 -4.23964e-09 4.26811e-10 4.98475e-09 7.73091 5.47488 0.417314 -4.23964e-09 4.26812e-10 4.98476e-09 2.90554 0.965183 0.102902 -4.23964e-09 4.26812e-10 4.98475e-09 10.2786 0.731801 0.0259123 -4.23965e-09 4.26817e-10 4.98476e-09 2.22167 -0.733487 -0.20892 7.23942e-14 -8.87971e-14 -1.19849e-13 -40.1529 27.3605 -27.5462 21.2062 -14.6088 -41.6959 0.022602 -4.27564 0.602039 6.14714e-09 -3.12293e-09 -3.05695e-09 1.06451e-08 -5.37602e-09 -5.27566e-09 6.14714e-09 -3.12294e-09 -3.05694e-09 -7.73091 5.47488 -0.417314 6.14714e-09 -3.12293e-09 -3.05695e-09 -2.90554 0.965183 -0.102902 6.14714e-09 -3.12294e-09 -3.05695e-09 -10.2786 0.731801 -0.0259123 6.14714e-09 -3.12294e-09 -3.05696e-09 -2.22167 -0.733487 0.20892 -2.03217e-16 0.0 -3.88251e-19 -45.7016 -28.957 7.86888 0.042327 20.6002 1.8116 3.60621 -11.0175 -13.6809 2.03217e-16 0.0 3.88251e-19 29.1036 -50.8264 5.19231 -0.0103354 22.5248 -1.59035 -5.80257 -4.16283 14.7898
